<svg xmlns="http://www.w3.org/2000/svg"  viewBox="0 0 100 100" width="100px" height="100px"><circle cx="50" cy="50" r="36.5" fill="#e9f6ff"/><path fill="none" stroke="#231f20" stroke-linecap="round" stroke-linejoin="round" stroke-miterlimit="10" d="M52.856,56.22	c-6.989,2.584-14.266-2.73-9.59-10.443c4.691-7.739-2.903-11.788-8.053-7.479c-7.134,5.969-2.577,15.235-11.511,20.49	c-6.309,3.711-11.34,5.489-11.34,5.489"/><path fill="none" stroke="#231f20" stroke-linecap="round" stroke-linejoin="round" stroke-miterlimit="10" d="M59.723,53.234	c2.25-1.867,3.128-7.213,0.128-9.223c-4.517-3.027-1.787-9.798,4.149-7.309c4.783,2.006,9.968,10.277,4.128,18.798"/><path fill="none" stroke="#231f20" stroke-linecap="round" stroke-linejoin="round" stroke-miterlimit="10" d="M54.222,61.054	c-1.471-1.576-3.446-7.227,4.414-7.672c7.252-0.411,11.561,4.204,13.032,6.937s0.671,8.299-3.35,9.256"/><path fill="none" stroke="#231f20" stroke-linecap="round" stroke-linejoin="round" stroke-miterlimit="10" d="M60.213,72.447	c0,0-3.525-0.427-6.411-1.829c-3.678-1.787-5.045-9.459,2.838-9.669c7.882-0.21,13.558,6.201,11.141,13.768	S51.175,89.746,32.151,92.794"/><circle cx="50.851" cy="37.362" r="2.362" fill="none" stroke="#231f20" stroke-linecap="round" stroke-linejoin="round" stroke-miterlimit="10"/><polyline fill="none" stroke="#231f20" stroke-linecap="round" stroke-linejoin="round" stroke-miterlimit="10" points="48.809,8.474 40.851,8.474 40.851,11.29 43.656,11.29 43.656,14.056 40.851,14.056 40.851,16.872 48.809,16.872"/><path fill="none" stroke="#231f20" stroke-linecap="round" stroke-linejoin="round" stroke-miterlimit="10" d="M52.865,27.083V7.44	c0-1.112-0.902-2.014-2.014-2.014s-2.014,0.902-2.014,2.014v19.643c-3.287,0.887-5.709,3.881-5.709,7.449	c0,4.266,3.458,7.723,7.723,7.723s7.723-3.458,7.723-7.723C58.574,30.965,56.152,27.97,52.865,27.083z"/></svg>