<svg xmlns="http://www.w3.org/2000/svg"  viewBox="0 0 100 100" width="100px" height="100px" baseProfile="basic"><circle cx="50" cy="50" r="36.5" fill="#e9f6ff"/><path fill="none" stroke="#231f20" stroke-linecap="round" stroke-linejoin="round" stroke-miterlimit="10" d="M45.264,33.64 c0.347-0.296,0.698-0.565,1.051-0.802c5.245-3.517,1.397-8.058-2.51-6.643c-5.261,1.904-9.558,6.754-11.394,12.886"/><path fill="none" stroke="#231f20" stroke-linecap="round" stroke-linejoin="round" stroke-miterlimit="10" d="M33.808,80.018 c0,0,3.332-9.909,17.188-13.943c6.637-1.587,6.271-7.151,1.928-8.391"/><path fill="none" stroke="#231f20" stroke-linecap="round" stroke-linejoin="round" stroke-miterlimit="10" d="M24.402,42.938 c0,0-0.211-10.123,3.399-17.705c2.631-5.525,9.208-1.666,6.665,3.069c-2.218,4.129-2.077,10.801-2.077,10.801"/><path fill="none" stroke="#231f20" stroke-linecap="round" stroke-linejoin="round" stroke-miterlimit="10" d="M24.367,42.861 c0,0-1.302-4.358-1.599-9.862c-0.228-4.236-5.869-5.812-6.981-0.4c-1.315,6.402,3.595,14.557,1.842,21.66s-7.454,14.82-7.454,14.82"/><circle cx="43.554" cy="52.166" r="10.332" fill="none" stroke="#231f20" stroke-linecap="round" stroke-linejoin="round" stroke-miterlimit="10"/><circle cx="79.493" cy="52.166" r="10.332" fill="none" stroke="#231f20" stroke-linecap="round" stroke-linejoin="round" stroke-miterlimit="10"/><path fill="none" stroke="#231f20" stroke-linecap="round" stroke-linejoin="round" stroke-miterlimit="10" d="M89.039,48.01 l-5.636-19.153c-0.919-3.124-3.727-5.417-6.983-5.443c-0.024,0-0.048,0-0.072,0c-4.962,0-8.985,4.023-8.985,8.985l1.797,20.216"/><path fill="none" stroke="#231f20" stroke-linecap="round" stroke-linejoin="round" stroke-miterlimit="10" d="M34.007,48.01 L34.007,48.01c1.521-5.168,4.719-9.684,9.09-12.833l2.141-1.542"/><path fill="none" stroke="#231f20" stroke-linecap="round" stroke-linejoin="round" stroke-miterlimit="10" d="M53.886,52.166 l1.797-19.767c0-4.962-4.023-8.985-8.985-8.985c-0.024,0-0.048,0-0.072,0c-3,0.023-5.62,1.972-6.732,4.722"/><circle cx="61.523" cy="46.775" r="6.739" fill="none" stroke="#231f20" stroke-linecap="round" stroke-linejoin="round" stroke-miterlimit="10"/><path fill="none" stroke="#231f20" stroke-linecap="round" stroke-linejoin="round" stroke-miterlimit="10" d="M67.484,29.254 c-1.13-2.137-3.375-3.594-5.961-3.594c-2.806,0-5.212,1.716-6.226,4.155"/><circle cx="61.523" cy="46.775" r="3.145" fill="none" stroke="#231f20" stroke-linecap="round" stroke-linejoin="round" stroke-miterlimit="10"/><path fill="none" stroke="#231f20" stroke-linecap="round" stroke-linejoin="round" stroke-miterlimit="10" d="M42.719,24.571 c0.81-2.866,3.521-4.816,6.489-4.568c0.107,0.009,0.213,0.019,0.32,0.031c3.279,0.369,5.657,3.315,5.463,6.609l-0.206,1.713"/><path fill="none" stroke="#231f20" stroke-linecap="round" stroke-linejoin="round" stroke-miterlimit="10" d="M80.432,24.571 c-0.81-2.866-3.521-4.816-6.489-4.568c-0.107,0.009-0.213,0.019-0.32,0.031c-3.279,0.369-5.657,3.315-5.463,6.609l0.206,1.713"/><path fill="none" stroke="#231f20" stroke-linecap="round" stroke-linejoin="round" stroke-miterlimit="10" d="M43.5,45.5	c-3.866,0-7,3.134-7,7"/></svg>