<svg xmlns="http://www.w3.org/2000/svg"  viewBox="0 0 100 100" width="100px" height="100px" baseProfile="basic"><circle cx="50" cy="50" r="36.5" fill="#fde9f1"/><path fill="none" stroke="#231f20" stroke-linecap="round" stroke-linejoin="round" stroke-miterlimit="10" d="M19.668,43.825	c4.18-3.838,8.189-6.056,12.816,0.18c4.035,6.399,9.712,3.207,6.818-2.783c-1.607-3.326-1.996-8.826,2.731-11.152	c3.304-1.626,10.437-1.354,12.945,3.537c2.628,5.124,6.802,1.597,5.804-2.059c-1.371-5.024-6.909-9.333-12.68-9.238"/><path fill="none" stroke="#231f20" stroke-linecap="round" stroke-linejoin="round" stroke-miterlimit="10" d="M10.37,24.803	c0,0,19.903-14.387,38.446-18.75c4.905-1.154,5.295,4.704,1.705,6.145c-4.665,1.873-5.862,3.619-5.862,3.619	s6.439-2.445,14.045-1.555c5.543,0.649,4.143,7.461-0.693,6.656c-4.217-0.702-9.935,1.379-9.935,1.379"/><path fill="none" stroke="#231f20" stroke-linecap="round" stroke-linejoin="round" stroke-miterlimit="10" d="M64.753,58.658	c11.115,0.845,19.073,3.113,19.073,5.777c0,3.386-12.847,6.13-28.696,6.13s-28.696-2.745-28.696-6.13	c0-2.182,5.337-4.098,13.374-5.184"/><path fill="none" stroke="#231f20" stroke-linecap="round" stroke-linejoin="round" stroke-miterlimit="10" d="M83.826,64.435	c0,0,0,6.167,0,6.813c0,3.386-12.847,6.13-28.696,6.13s-28.696-2.745-28.696-6.13c0-3.386,0-6.813,0-6.813"/><line x1="83.826" x2="83.826" y1="71.248" y2="82.761" fill="none" stroke="#231f20" stroke-linecap="round" stroke-linejoin="round" stroke-miterlimit="10"/><line x1="26.435" x2="26.435" y1="71.248" y2="82.761" fill="none" stroke="#231f20" stroke-linecap="round" stroke-linejoin="round" stroke-miterlimit="10"/><line x1="55.13" x2="55.13" y1="77.378" y2="88.058" fill="none" stroke="#231f20" stroke-linecap="round" stroke-linejoin="round" stroke-miterlimit="10"/><line x1="65.696" x2="65.696" y1="77.201" y2="87.64" fill="none" stroke="#231f20" stroke-linecap="round" stroke-linejoin="round" stroke-miterlimit="10"/><line x1="75.261" x2="75.261" y1="75.734" y2="86.152" fill="none" stroke="#231f20" stroke-linecap="round" stroke-linejoin="round" stroke-miterlimit="10"/><line x1="44.565" x2="44.565" y1="77.201" y2="87.64" fill="none" stroke="#231f20" stroke-linecap="round" stroke-linejoin="round" stroke-miterlimit="10"/><line x1="35" x2="35" y1="75.734" y2="86.152" fill="none" stroke="#231f20" stroke-linecap="round" stroke-linejoin="round" stroke-miterlimit="10"/><path fill="none" stroke="#231f20" stroke-linecap="round" stroke-linejoin="round" stroke-miterlimit="10" d="M55.13,62.576	L50,67.218c0,0-2.891-1.903-3.283-3.468c-0.293-1.174-0.147-2.348-0.055-2.861"/><path fill="none" stroke="#231f20" stroke-linecap="round" stroke-linejoin="round" stroke-miterlimit="10" d="M57.283,53.967	c0,0,4.109,0.88,4.109,2.935c0,2.054-4.011,8.609-4.891,9s-4.304,0-4.304,0"/><path fill="none" stroke="#231f20" stroke-linecap="round" stroke-linejoin="round" stroke-miterlimit="10" d="M51.806,51.759	c1.039-0.821,2.745-1.999,3.716-1.759c2.054,1.62,2.592,4.505-0.391,7"/><path fill="none" stroke="#231f20" stroke-linecap="round" stroke-linejoin="round" stroke-miterlimit="10" d="M50,61.793	c0,0-5.728-1.339-5.924-3.018c-0.196-1.678,1.272-2.069,0-3.439s-0.685-3.685,0-4.011c0.984-0.469,3.249-0.213,5.221,0.468"/><path fill="none" stroke="#231f20" stroke-linecap="round" stroke-linejoin="round" stroke-miterlimit="10" d="M47.94,54.163	c0,0,1.385-2.984,2.331-3.277c0.946-0.293,3.001,2.641,3.001,2.641"/><path fill="none" stroke="#231f20" stroke-linecap="round" stroke-linejoin="round" stroke-miterlimit="10" d="M45.176,46.519	c-0.459-1.823-1.102-3.489-1.688-4.801"/><path fill="none" stroke="#231f20" stroke-linecap="round" stroke-linejoin="round" stroke-miterlimit="10" d="M52.589,37.579	c0.829,1.848,1.733,4.21,2.366,6.829"/><path fill="none" stroke="#231f20" stroke-linecap="round" stroke-linejoin="round" stroke-miterlimit="10" d="M46.261,36.196	c0,0,2.87,4.603,4.043,10.323"/></svg>